HIERARCHY
ROOT pelvis
{
	OFFSET 0.003123 -0.351407 0.012037
	CHANNELS 6 Xposition Yposition Zposition Zrotation Yrotation Xrotation 
	JOINT left_hip
	{
		OFFSET 0.058189 -0.092763 -0.026001
		CHANNELS 3 Zrotation Yrotation Xrotation
		JOINT left_knee
		{
			OFFSET 0.054695 -0.378753 -0.009396
			CHANNELS 3 Zrotation Yrotation Xrotation
			JOINT left_ankle
			{
				OFFSET -0.043453 -0.403059 -0.031876
				CHANNELS 3 Zrotation Yrotation Xrotation
				JOINT left_foot
				{
					OFFSET 0.047257 -0.057997 0.118216
					CHANNELS 3 Zrotation Yrotation Xrotation
					End Site
					{
						OFFSET 0.000000 0.000000 0.000000
					}
				}
			}
		}
	}
	JOINT right_hip
	{
		OFFSET -0.063267 -0.103908 -0.021250
		CHANNELS 3 Zrotation Yrotation Xrotation
		JOINT right_knee
		{
			OFFSET -0.044210 -0.362380 -0.016824
			CHANNELS 3 Zrotation Yrotation Xrotation
			JOINT right_ankle
			{
				OFFSET 0.015417 -0.410728 -0.020192
				CHANNELS 3 Zrotation Yrotation Xrotation
				JOINT right_foot
				{
					OFFSET -0.038812 -0.058328 0.119049
					CHANNELS 3 Zrotation Yrotation Xrotation
					End Site
					{
						OFFSET 0.000000 0.000000 0.000000
					}
				}
			}
		}
	}
	JOINT spine_1
	{
		OFFSET -0.002763 0.109891 -0.027618
		CHANNELS 3 Zrotation Yrotation Xrotation
		JOINT spine_2
		{
			OFFSET 0.009448 0.131853 -0.005940
			CHANNELS 3 Zrotation Yrotation Xrotation
			JOINT spine_3
			{
				OFFSET -0.011330 0.052235 0.028447
				CHANNELS 3 Zrotation Yrotation Xrotation
				JOINT neck
				{
					OFFSET -0.012164 0.165167 -0.031615
					CHANNELS 3 Zrotation Yrotation Xrotation
					JOINT head
					{
						OFFSET 0.024783 0.160452 0.020737
						CHANNELS 3 Zrotation Yrotation Xrotation
						End Site
						{
							OFFSET 0.000000 0.000000 0.000000
						}
					}
				}
				JOINT left_collar
				{
					OFFSET 0.046364 0.084944 -0.007220
					CHANNELS 3 Zrotation Yrotation Xrotation
					JOINT left_shoulder
					{
						OFFSET 0.119239 0.057728 -0.015461
						CHANNELS 3 Zrotation Yrotation Xrotation
						JOINT left_elbow
						{
							OFFSET 0.254123 -0.072151 -0.042459
							CHANNELS 3 Zrotation Yrotation Xrotation
							JOINT left_wrist
							{
								OFFSET 0.251987 0.023221 -0.002472
								CHANNELS 3 Zrotation Yrotation Xrotation
								JOINT left_index_1
								{
									OFFSET 0.101902 -0.008688 0.019351
									CHANNELS 3 Zrotation Yrotation Xrotation
									JOINT left_index_2
									{
										OFFSET 0.030149 -0.011154 0.001151
										CHANNELS 3 Zrotation Yrotation Xrotation
										JOINT left_index_3
										{
											OFFSET 0.006504 -0.021577 -0.002433
											CHANNELS 3 Zrotation Yrotation Xrotation
											End Site
											{
												OFFSET 0.000000 0.000000 0.000000
											}
										}
									}
								}
								JOINT left_middle_1
								{
									OFFSET 0.109398 -0.006328 -0.003981
									CHANNELS 3 Zrotation Yrotation Xrotation
									JOINT left_middle_2
									{
										OFFSET 0.026472 -0.015218 -0.004641
										CHANNELS 3 Zrotation Yrotation Xrotation
										JOINT left_middle_3
										{
											OFFSET 0.005022 -0.023347 -0.001911
											CHANNELS 3 Zrotation Yrotation Xrotation
											End Site
											{
												OFFSET 0.000000 0.000000 0.000000
											}
										}
									}
								}
								JOINT left_pinky_1
								{
									OFFSET 0.084047 -0.014539 -0.043750
									CHANNELS 3 Zrotation Yrotation Xrotation
									JOINT left_pinky_2
									{
										OFFSET 0.012124 -0.014448 -0.005375
										CHANNELS 3 Zrotation Yrotation Xrotation
										JOINT left_pinky_3
										{
											OFFSET 0.003798 -0.018853 0.000167
											CHANNELS 3 Zrotation Yrotation Xrotation
											End Site
											{
												OFFSET 0.000000 0.000000 0.000000
											}
										}
									}
								}
								JOINT left_ring_1
								{
									OFFSET 0.097444 -0.009268 -0.027345
									CHANNELS 3 Zrotation Yrotation Xrotation
									JOINT left_ring_2
									{
										OFFSET 0.023561 -0.016057 -0.001895
										CHANNELS 3 Zrotation Yrotation Xrotation
										JOINT left_ring_3
										{
											OFFSET 0.004257 -0.023548 0.000814
											CHANNELS 3 Zrotation Yrotation Xrotation
											End Site
											{
												OFFSET 0.000000 0.000000 0.000000
											}
										}
									}
								}
								JOINT left_thumb_1
								{
									OFFSET 0.040636 -0.017977 0.025611
									CHANNELS 3 Zrotation Yrotation Xrotation
									JOINT left_thumb_2
									{
										OFFSET 0.021637 -0.017639 0.011623
										CHANNELS 3 Zrotation Yrotation Xrotation
										JOINT left_thumb_3
										{
											OFFSET 0.024002 -0.008356 0.006548
											CHANNELS 3 Zrotation Yrotation Xrotation
											End Site
											{
												OFFSET 0.000000 0.000000 0.000000
											}
										}
									}
								}
							}
						}
					}
				}
				JOINT right_collar
				{
					OFFSET -0.047695 0.084339 -0.013400
					CHANNELS 3 Zrotation Yrotation Xrotation
					JOINT right_shoulder
					{
						OFFSET -0.102578 0.053524 -0.012669
						CHANNELS 3 Zrotation Yrotation Xrotation
						JOINT right_elbow
						{
							OFFSET -0.271150 -0.036492 -0.026467
							CHANNELS 3 Zrotation Yrotation Xrotation
							JOINT right_wrist
							{
								OFFSET -0.249267 -0.004533 -0.015325
								CHANNELS 3 Zrotation Yrotation Xrotation
								JOINT right_index_1
								{
									OFFSET -0.099881 -0.011783 0.019600
									CHANNELS 3 Zrotation Yrotation Xrotation
									JOINT right_index_2
									{
										OFFSET -0.030148 -0.011154 0.001151
										CHANNELS 3 Zrotation Yrotation Xrotation
										JOINT right_index_3
										{
											OFFSET -0.006505 -0.021577 -0.002432
											CHANNELS 3 Zrotation Yrotation Xrotation
											End Site
											{
												OFFSET 0.000000 0.000000 0.000000
											}
										}
									}
								}
								JOINT right_middle_1
								{
									OFFSET -0.107376 -0.009422 -0.003734
									CHANNELS 3 Zrotation Yrotation Xrotation
									JOINT right_middle_2
									{
										OFFSET -0.026472 -0.015218 -0.004641
										CHANNELS 3 Zrotation Yrotation Xrotation
										JOINT right_middle_3
										{
											OFFSET -0.005022 -0.023347 -0.001911
											CHANNELS 3 Zrotation Yrotation Xrotation
											End Site
											{
												OFFSET 0.000000 0.000000 0.000000
											}
										}
									}
								}
								JOINT right_pinky_1
								{
									OFFSET -0.082027 -0.017634 -0.043503
									CHANNELS 3 Zrotation Yrotation Xrotation
									JOINT right_pinky_2
									{
										OFFSET -0.012123 -0.014448 -0.005374
										CHANNELS 3 Zrotation Yrotation Xrotation
										JOINT right_pinky_3
										{
											OFFSET -0.003798 -0.018852 0.000167
											CHANNELS 3 Zrotation Yrotation Xrotation
											End Site
											{
												OFFSET 0.000000 0.000000 0.000000
											}
										}
									}
								}
								JOINT right_ring_1
								{
									OFFSET -0.095423 -0.012362 -0.027099
									CHANNELS 3 Zrotation Yrotation Xrotation
									JOINT right_ring_2
									{
										OFFSET -0.023561 -0.016057 -0.001895
										CHANNELS 3 Zrotation Yrotation Xrotation
										JOINT right_ring_3
										{
											OFFSET -0.004257 -0.023548 0.000816
											CHANNELS 3 Zrotation Yrotation Xrotation
											End Site
											{
												OFFSET 0.000000 0.000000 0.000000
											}
										}
									}
								}
								JOINT right_thumb_1
								{
									OFFSET -0.038613 -0.021074 0.025861
									CHANNELS 3 Zrotation Yrotation Xrotation
									JOINT right_thumb_2
									{
										OFFSET -0.021636 -0.017639 0.011623
										CHANNELS 3 Zrotation Yrotation Xrotation
										JOINT right_thumb_3
										{
											OFFSET -0.024004 -0.008353 0.006547
											CHANNELS 3 Zrotation Yrotation Xrotation
											End Site
											{
												OFFSET 0.000000 0.000000 0.000000
											}
										}
									}
								}
							}
						}
					}
				}
			}
		}
	}
}
MOTION
Frames: 4
Frame Time: 0.050000
0.036891 0.945453 0.257470 -2.489519 -7.907346 -6.520081 2.279800 -0.105117 -0.943798 -4.788622 -0.538513 21.111687 -5.266585 -0.136572 13.625099 0.000000 0.000000 0.000000 -1.194761 -0.781192 8.299330 1.356471 0.871186 21.642245 3.301537 8.142415 -1.461979 0.000000 0.000000 0.000000 -0.193656 -0.545192 6.538742 -7.205487 -0.588142 -14.769785 7.702264 -1.295573 25.572941 -0.350307 0.125261 -0.805579 0.000000 0.000000 0.000000 4.071451 -9.943667 4.635350 -15.754195 -65.081416 -12.755686 26.668511 -39.799679 -4.921710 15.623759 -8.880072 -56.286535 -8.734199 -10.554932 2.320129 -59.628149 -13.127198 1.171975 0.000000 0.000000 0.000000 -50.913909 -5.769316 5.017056 -20.772479 -9.514983 -20.243449 0.000000 0.000000 0.000000 -52.123970 -22.592213 -7.265043 6.093228 -0.033958 0.884991 0.000000 0.000000 0.000000 -59.205215 -15.191155 11.788488 3.876948 -7.900129 -23.878959 0.000000 0.000000 0.000000 25.648142 -0.922409 -9.699889 -17.265077 5.662090 8.216957 0.000000 0.000000 0.000000 -4.609969 5.953872 3.482801 39.192019 43.097489 2.999170 11.567985 57.817338 4.266057 7.928230 16.661135 -7.683671 32.824747 -7.545397 2.265966 45.573602 -2.113531 -3.092887 0.000000 0.000000 0.000000 58.627303 -3.060316 -6.887778 12.155111 1.936802 -8.021732 0.000000 0.000000 0.000000 50.868472 26.916339 -28.247638 -3.135182 -4.031667 19.984076 0.000000 0.000000 0.000000 59.391455 15.484827 -3.832679 3.120121 0.740809 -2.390095 0.000000 0.000000 0.000000 5.491087 -11.351710 11.644917 -25.003076 -8.160380 -0.815317 0.000000 0.000000 0.000000 
0.032769 0.943680 0.253016 -2.292459 -7.993635 -7.644621 3.031165 0.044902 0.190860 -5.789131 -0.233901 20.886738 -5.246351 -0.438615 13.102862 0.000000 0.000000 0.000000 -0.998148 -1.004409 10.435606 0.985292 0.851517 20.020505 2.694903 8.473588 -3.153307 0.000000 0.000000 0.000000 -0.324698 -0.541427 6.465878 -7.309977 -0.895602 -16.037348 7.424171 -0.857420 26.611642 -0.223363 -0.003390 -0.029967 0.000000 0.000000 0.000000 3.496245 -10.022298 4.709610 -15.754197 -64.916807 -12.898363 24.341182 -40.614919 -4.234068 15.751721 -8.419197 -53.886897 -11.344263 -11.213781 2.546184 -53.545310 -8.783539 5.899284 0.000000 0.000000 0.000000 -46.685038 -11.917807 3.411627 -25.492042 -10.793147 -19.703031 0.000000 0.000000 0.000000 -47.078996 -26.247315 -11.757745 2.238585 0.228516 0.980268 0.000000 0.000000 0.000000 -56.438430 -18.129439 9.829702 0.268047 -8.803299 -23.648735 0.000000 0.000000 0.000000 24.323999 0.663401 -9.185805 -19.540079 1.231662 6.559548 0.000000 0.000000 0.000000 -3.432648 5.782649 3.290863 40.434028 40.891508 2.888790 16.019580 59.024642 6.798466 4.675567 14.632819 -6.288382 24.064380 -1.062903 1.317004 41.359455 -1.853811 -3.523717 0.000000 0.000000 0.000000 39.478297 2.885645 -5.824079 32.864041 1.575006 -7.380584 0.000000 0.000000 0.000000 27.425303 25.226992 -29.979814 24.014481 -3.885290 8.410830 0.000000 0.000000 0.000000 40.770793 15.112057 -5.926675 26.063781 4.244707 -6.591677 0.000000 0.000000 0.000000 -0.401711 -11.925348 9.708837 -8.135839 -1.001022 -1.621974 0.000000 0.000000 0.000000 
0.028529 0.940779 0.243446 -1.654817 -9.078006 -8.427675 2.423507 0.129352 0.825807 -5.594995 -0.203572 20.358575 -4.155046 0.328021 11.774220 0.000000 0.000000 0.000000 -0.726850 -1.106376 11.427478 -0.498459 1.090363 18.609195 1.998566 9.092706 -5.246289 0.000000 0.000000 0.000000 -1.152716 -0.497427 5.632129 -7.871250 -0.459676 -15.061952 8.241300 -1.150313 25.726737 0.105030 -0.108731 0.239022 0.000000 0.000000 0.000000 3.516650 -10.763909 5.042899 -15.580244 -64.813935 -12.598054 24.997711 -37.756568 -4.072959 15.532532 -10.111983 -54.344659 -7.281317 -10.291853 1.629069 -66.252568 -8.760917 3.193634 0.000000 0.000000 0.000000 -45.771594 -11.481186 2.887707 -35.949765 -12.785733 -16.581446 0.000000 0.000000 0.000000 -52.910579 -25.295712 -9.364884 1.295310 1.422574 4.459230 0.000000 0.000000 0.000000 -57.877672 -19.249901 9.852172 -7.512818 -9.548694 -19.643348 0.000000 0.000000 0.000000 27.383955 4.051384 -8.848889 -21.540264 -1.886814 5.983349 0.000000 0.000000 0.000000 -3.491711 6.689808 3.762252 43.088453 39.046138 2.862451 17.729202 59.899256 7.795973 3.295711 12.472624 -6.057515 20.566046 1.767034 0.673126 34.179107 -0.083132 -5.386395 0.000000 0.000000 0.000000 30.237176 6.820952 -6.118833 35.781641 1.997771 -7.977007 0.000000 0.000000 0.000000 14.034425 23.674543 -30.058229 31.957422 -0.457040 0.992379 0.000000 0.000000 0.000000 31.636698 15.827206 -7.171975 29.840866 5.692343 -8.471048 0.000000 0.000000 0.000000 -2.232791 -10.583738 7.727643 -1.834085 1.573441 -1.071987 0.000000 0.000000 0.000000 
0.025585 0.939006 0.233547 -1.539739 -8.138950 -8.571589 1.547144 0.147441 1.011272 -3.765374 -0.749370 19.259178 -3.523403 -0.036310 9.497161 0.000000 0.000000 0.000000 -0.040730 -1.273369 11.876050 -1.640473 1.063643 15.750912 2.907251 9.417918 -3.609983 0.000000 0.000000 0.000000 -0.984530 -0.464214 5.267628 -7.605655 -0.588063 -15.314834 7.403655 -1.916229 25.412995 -0.269412 -0.067317 0.463528 0.000000 0.000000 0.000000 4.525872 -10.796174 4.961096 -17.596249 -64.117423 -11.236594 24.547087 -37.888094 -3.899787 15.677332 -8.205023 -52.096000 -6.064465 -5.330113 0.744231 -60.201397 -12.055044 1.547772 0.000000 0.000000 0.000000 -42.363852 -15.134219 1.596349 -35.806031 -10.926303 -12.867665 0.000000 0.000000 0.000000 -48.673247 -26.662033 -12.000036 0.404199 -0.230222 -0.690493 0.000000 0.000000 0.000000 -54.136916 -21.590378 7.717797 -5.182235 -8.276535 -17.678539 0.000000 0.000000 0.000000 29.224891 5.780688 -8.736358 -21.997345 -2.852425 5.752420 0.000000 0.000000 0.000000 -4.487891 7.529345 4.242771 46.649763 35.407465 2.559737 20.850666 61.974760 10.041767 3.155447 10.545471 -3.668316 18.668871 3.107709 0.185492 21.446415 0.220429 -5.076102 0.000000 0.000000 0.000000 25.740185 7.811639 -6.358489 29.849186 1.368379 -7.417743 0.000000 0.000000 0.000000 8.031046 20.128117 -26.160891 35.020562 0.910715 -1.233953 0.000000 0.000000 0.000000 25.986088 13.055264 -6.872306 29.486072 5.410811 -8.631071 0.000000 0.000000 0.000000 -5.431579 -11.050774 7.109276 5.869107 4.845206 0.102204 0.000000 0.000000 0.000000 
